<mxfile host="app.diagrams.net" modified="2023-05-21T03:22:40.428Z" agent="Mozilla/5.0 (Macintosh; Intel Mac OS X 10_15_7) AppleWebKit/537.36 (KHTML, like Gecko) Chrome/106.0.0.0 Safari/537.36" version="21.3.2" etag="IdKR8Ka8w7MVXgsjTKys" type="github">
  <diagram name="Page-1" id="3RUdueTalLvV0bp8YJsc">
    <mxGraphModel>
      <root>
        <mxCell id="0" />
        <mxCell id="1" parent="0" />
      </root>
    </mxGraphModel>
  </diagram>
</mxfile>
